<svg width="166" height="28" viewBox="0 0 166 28" fill="none" xmlns="http://www.w3.org/2000/svg">
<path d="M17.044 27.5L12.184 20.48H11.896H6.82V27.5H0.988V2.3H11.896C14.128 2.3 16.06 2.672 17.692 3.416C19.348 4.16 20.62 5.216 21.508 6.584C22.396 7.952 22.84 9.572 22.84 11.444C22.84 13.316 22.384 14.936 21.472 16.304C20.584 17.648 19.312 18.68 17.656 19.4L23.308 27.5H17.044ZM16.936 11.444C16.936 10.028 16.48 8.948 15.568 8.204C14.656 7.436 13.324 7.052 11.572 7.052H6.82V15.836H11.572C13.324 15.836 14.656 15.452 15.568 14.684C16.48 13.916 16.936 12.836 16.936 11.444ZM36.8207 23.288C37.8287 23.288 38.7167 23.144 39.4847 22.856C40.2767 22.544 41.0087 22.064 41.6807 21.416L44.6687 24.656C42.8447 26.744 40.1807 27.788 36.6767 27.788C34.4927 27.788 32.5607 27.368 30.8807 26.528C29.2007 25.664 27.9047 24.476 26.9927 22.964C26.0807 21.452 25.6247 19.736 25.6247 17.816C25.6247 15.92 26.0687 14.216 26.9567 12.704C27.8687 11.168 29.1047 9.98 30.6647 9.14C32.2487 8.276 34.0247 7.844 35.9927 7.844C37.8407 7.844 39.5207 8.24 41.0327 9.032C42.5447 9.8 43.7447 10.928 44.6327 12.416C45.5447 13.88 46.0007 15.62 46.0007 17.636L31.6727 20.408C32.0807 21.368 32.7167 22.088 33.5807 22.568C34.4687 23.048 35.5487 23.288 36.8207 23.288ZM35.9927 12.092C34.5767 12.092 33.4247 12.548 32.5367 13.46C31.6487 14.372 31.1807 15.632 31.1327 17.24L40.5647 15.404C40.3007 14.396 39.7607 13.592 38.9447 12.992C38.1287 12.392 37.1447 12.092 35.9927 12.092ZM59.1356 27.788C57.0716 27.788 55.2116 27.368 53.5556 26.528C51.9236 25.664 50.6396 24.476 49.7036 22.964C48.7916 21.452 48.3356 19.736 48.3356 17.816C48.3356 15.896 48.7916 14.18 49.7036 12.668C50.6396 11.156 51.9236 9.98 53.5556 9.14C55.2116 8.276 57.0716 7.844 59.1356 7.844C61.1756 7.844 62.9516 8.276 64.4636 9.14C65.9996 9.98 67.1156 11.192 67.8116 12.776L63.4556 15.116C62.4476 13.34 60.9956 12.452 59.0996 12.452C57.6356 12.452 56.4236 12.932 55.4636 13.892C54.5036 14.852 54.0236 16.16 54.0236 17.816C54.0236 19.472 54.5036 20.78 55.4636 21.74C56.4236 22.7 57.6356 23.18 59.0996 23.18C61.0196 23.18 62.4716 22.292 63.4556 20.516L67.8116 22.892C67.1156 24.428 65.9996 25.628 64.4636 26.492C62.9516 27.356 61.1756 27.788 59.1356 27.788ZM80.015 27.788C77.975 27.788 76.139 27.368 74.507 26.528C72.899 25.664 71.639 24.476 70.727 22.964C69.815 21.452 69.359 19.736 69.359 17.816C69.359 15.896 69.815 14.18 70.727 12.668C71.639 11.156 72.899 9.98 74.507 9.14C76.139 8.276 77.975 7.844 80.015 7.844C82.055 7.844 83.879 8.276 85.487 9.14C87.095 9.98 88.355 11.156 89.267 12.668C90.179 14.18 90.635 15.896 90.635 17.816C90.635 19.736 90.179 21.452 89.267 22.964C88.355 24.476 87.095 25.664 85.487 26.528C83.879 27.368 82.055 27.788 80.015 27.788ZM80.015 23.18C81.455 23.18 82.631 22.7 83.543 21.74C84.479 20.756 84.947 19.448 84.947 17.816C84.947 16.184 84.479 14.888 83.543 13.928C82.631 12.944 81.455 12.452 80.015 12.452C78.575 12.452 77.387 12.944 76.451 13.928C75.515 14.888 75.047 16.184 75.047 17.816C75.047 19.448 75.515 20.756 76.451 21.74C77.387 22.7 78.575 23.18 80.015 23.18ZM101.337 27.788C99.1529 27.788 97.4489 27.212 96.2249 26.06C95.0009 24.884 94.3889 23.228 94.3889 21.092V0.787998H100.005V20.768C100.005 21.584 100.209 22.22 100.617 22.676C101.049 23.108 101.649 23.324 102.417 23.324C102.705 23.324 102.993 23.288 103.281 23.216C103.593 23.144 103.833 23.06 104.001 22.964L104.253 27.32C103.317 27.632 102.345 27.788 101.337 27.788ZM113.958 27.788C111.774 27.788 110.07 27.212 108.846 26.06C107.622 24.884 107.01 23.228 107.01 21.092V0.787998H112.626V20.768C112.626 21.584 112.83 22.22 113.238 22.676C113.67 23.108 114.27 23.324 115.038 23.324C115.326 23.324 115.614 23.288 115.902 23.216C116.214 23.144 116.454 23.06 116.622 22.964L116.874 27.32C115.938 27.632 114.966 27.788 113.958 27.788ZM138.936 8.132V27.5H133.572V25.268C132.18 26.948 130.164 27.788 127.524 27.788C125.7 27.788 124.044 27.38 122.556 26.564C121.092 25.748 119.94 24.584 119.1 23.072C118.26 21.56 117.84 19.808 117.84 17.816C117.84 15.824 118.26 14.072 119.1 12.56C119.94 11.048 121.092 9.884 122.556 9.068C124.044 8.252 125.7 7.844 127.524 7.844C129.996 7.844 131.928 8.624 133.32 10.184V8.132H138.936ZM128.496 23.18C129.912 23.18 131.088 22.7 132.024 21.74C132.96 20.756 133.428 19.448 133.428 17.816C133.428 16.184 132.96 14.888 132.024 13.928C131.088 12.944 129.912 12.452 128.496 12.452C127.056 12.452 125.868 12.944 124.932 13.928C123.996 14.888 123.528 16.184 123.528 17.816C123.528 19.448 123.996 20.756 124.932 21.74C125.868 22.7 127.056 23.18 128.496 23.18ZM155.583 7.844C157.383 7.844 159.015 8.264 160.479 9.104C161.967 9.92 163.131 11.084 163.971 12.596C164.811 14.084 165.231 15.824 165.231 17.816C165.231 19.808 164.811 21.56 163.971 23.072C163.131 24.56 161.967 25.724 160.479 26.564C159.015 27.38 157.383 27.788 155.583 27.788C152.919 27.788 150.891 26.948 149.499 25.268V27.5H144.135V0.787998H149.751V10.184C151.167 8.624 153.111 7.844 155.583 7.844ZM154.611 23.18C156.051 23.18 157.227 22.7 158.139 21.74C159.075 20.756 159.543 19.448 159.543 17.816C159.543 16.184 159.075 14.888 158.139 13.928C157.227 12.944 156.051 12.452 154.611 12.452C153.171 12.452 151.983 12.944 151.047 13.928C150.135 14.888 149.679 16.184 149.679 17.816C149.679 19.448 150.135 20.756 151.047 21.74C151.983 22.7 153.171 23.18 154.611 23.18Z" fill="white"/>
</svg>
